<svg width="41" height="47" viewBox="0 0 41 47" fill="none" xmlns="http://www.w3.org/2000/svg">
<path d="M20.3378 11.7126C19.3489 11.7126 18.3822 12.0571 17.5599 12.7027C16.7377 13.3482 16.0968 14.2658 15.7184 15.3393C15.3399 16.4128 15.2409 17.5941 15.4338 18.7337C15.6268 19.8733 16.103 20.9202 16.8022 21.7418C17.5015 22.5634 18.3924 23.123 19.3623 23.3497C20.3322 23.5764 21.3376 23.46 22.2512 23.0153C23.1648 22.5707 23.9457 21.8177 24.4951 20.8515C25.0445 19.8854 25.3378 18.7495 25.3378 17.5876C25.3363 16.03 24.809 14.5367 23.8716 13.4353C22.9343 12.3339 21.6634 11.7143 20.3378 11.7126ZM20.3378 20.5251C19.8433 20.5251 19.36 20.3528 18.9488 20.03C18.5377 19.7072 18.2173 19.2484 18.0281 18.7117C17.8388 18.1749 17.7893 17.5843 17.8858 17.0145C17.9823 16.4447 18.2204 15.9212 18.57 15.5104C18.9196 15.0996 19.3651 14.8198 19.85 14.7065C20.335 14.5932 20.8377 14.6513 21.2945 14.8737C21.7513 15.096 22.1417 15.4725 22.4164 15.9556C22.6911 16.4386 22.8378 17.0066 22.8378 17.5876C22.837 18.3664 22.5734 19.113 22.1047 19.6637C21.636 20.2144 21.0006 20.5242 20.3378 20.5251Z" fill="#FCA311"/>
<path d="M29.9458 6.28947C27.5702 3.49888 24.3991 1.84116 21.0445 1.63625C17.6899 1.43133 14.3896 2.69375 11.7806 5.17985C9.17156 7.66596 7.43875 11.1995 6.9166 15.0985C6.39445 18.9975 7.11997 22.9856 8.95315 26.293L18.399 43.3317C18.6092 43.7108 18.8966 44.0224 19.2352 44.238C19.5738 44.4536 19.9528 44.5665 20.3379 44.5665C20.723 44.5665 21.102 44.4536 21.4406 44.238C21.7791 44.0224 22.0665 43.7108 22.2767 43.3317L31.7229 26.293C33.4239 23.2249 34.1756 19.563 33.8521 15.9211C33.5285 12.2792 32.1494 8.87868 29.9458 6.28947ZM29.6282 24.6896L20.3379 41.4471L11.0475 24.6896C8.20377 19.5601 8.81369 12.6955 12.4978 8.36656C13.5273 7.15677 14.7496 6.19712 16.0948 5.54239C17.4401 4.88766 18.8819 4.55067 20.3379 4.55067C21.794 4.55067 23.2358 4.88766 24.581 5.54239C25.9262 6.19712 27.1485 7.15677 28.1781 8.36656C31.8621 12.6955 32.472 19.5601 29.6282 24.6896Z" fill="#FCA311"/>
</svg>
