<svg width="31" height="31" viewBox="0 0 31 31" fill="none" xmlns="http://www.w3.org/2000/svg">
<g clip-path="url(#clip0_142:54)">
<path d="M26.9525 2.625H3.38103C1.60648 2.625 0.166748 3.88477 0.166748 5.4375V26.0625C0.166748 27.6152 1.60648 28.875 3.38103 28.875H26.9525C28.727 28.875 30.1667 27.6152 30.1667 26.0625V5.4375C30.1667 3.88477 28.727 2.625 26.9525 2.625ZM11.1489 21.6094C7.44577 21.6094 4.45246 18.9902 4.45246 15.75C4.45246 12.5098 7.44577 9.89062 11.1489 9.89062C12.9569 9.89062 14.4636 10.4648 15.6355 11.4258L13.8208 12.9551C13.3252 12.5391 12.4614 12.0527 11.1556 12.0527C8.87211 12.0527 7.0105 13.7051 7.0105 15.7559C7.0105 17.8008 8.87211 19.459 11.1556 19.459C13.8074 19.459 14.7984 17.7891 14.9592 16.9336H11.1489V14.918H17.4703C17.5373 15.2109 17.5775 15.5098 17.5775 15.8906C17.5775 19.2363 15.0127 21.6094 11.1489 21.6094ZM25.881 16.8164H23.9391V18.5156H21.9837V16.8164H20.0417V15.1055H21.9837V13.4062H23.9391V15.1055H25.881V16.8164Z" fill="#F24E1E"/>
</g>
<defs>
<clipPath id="clip0_142:54">
<rect width="30" height="30" fill="white" transform="translate(0.166748 0.75)"/>
</clipPath>
</defs>
</svg>
