<svg width="31" height="30" viewBox="0 0 31 30" fill="none" xmlns="http://www.w3.org/2000/svg">
<g clip-path="url(#clip0_142:60)">
<path d="M5.64457 0C2.6101 0 0.166748 2.44335 0.166748 5.47782V24.5222C0.166748 27.5567 2.6101 30 5.64457 30H15.9665V18.2719H12.8652V14.0494H15.9665V10.4419C15.9665 7.60764 17.7988 5.00532 22.0199 5.00532C23.7289 5.00532 24.9927 5.16939 24.9927 5.16939L24.8933 9.11253C24.8933 9.11253 23.6044 9.10035 22.198 9.10035C20.6758 9.10035 20.4317 9.80169 20.4317 10.966V14.0494H25.0142L24.8146 18.2719H20.4317V30.0001H24.6889C27.7234 30.0001 30.1667 27.5567 30.1667 24.5222V5.47785C30.1667 2.44338 27.7234 3e-05 24.6889 3e-05H5.64454L5.64457 0Z" fill="#0C6CDC"/>
</g>
<defs>
<clipPath id="clip0_142:60">
<rect width="30" height="30" fill="white" transform="translate(0.166748)"/>
</clipPath>
</defs>
</svg>
