<svg width="31" height="31" viewBox="0 0 31 31" fill="none" xmlns="http://www.w3.org/2000/svg">
<g clip-path="url(#clip0_142:56)">
<path d="M25.7272 25.8113H21.2821V18.8501C21.2821 17.1901 21.2525 15.0532 18.9702 15.0532C16.6551 15.0532 16.3008 16.8619 16.3008 18.7292V25.8109H11.8559V11.4957H16.1231V13.452H16.1828C16.6099 12.7219 17.227 12.1212 17.9684 11.7139C18.7098 11.3067 19.5478 11.1082 20.3931 11.1396C24.8984 11.1396 25.729 14.103 25.729 17.9583L25.7272 25.8113ZM6.84028 9.53904C5.41563 9.53927 4.26051 8.38451 4.26028 6.95986C4.26005 5.53521 5.41469 4.38009 6.83934 4.37986C8.26399 4.37951 9.41911 5.53427 9.41934 6.95892C9.41947 7.64307 9.14782 8.29924 8.66415 8.7831C8.18049 9.26697 7.52443 9.53888 6.84028 9.53904ZM9.06286 25.8115H4.61313V11.4957H9.06274V25.8113L9.06286 25.8115ZM27.9432 0.251695H2.37954C1.17133 0.238101 0.180514 1.20595 0.165749 2.41416V28.0844C0.180045 29.2932 1.17075 30.262 2.37942 30.2494H27.9432C29.1544 30.2644 30.149 29.2956 30.1657 28.0844V2.41216C30.1485 1.20162 29.1538 0.233883 27.9432 0.249703" fill="#0A66C2"/>
</g>
<defs>
<clipPath id="clip0_142:56">
<rect width="30" height="30" fill="white" transform="translate(0.166748 0.25)"/>
</clipPath>
</defs>
</svg>
