<svg width="31" height="31" viewBox="0 0 31 31" fill="none" xmlns="http://www.w3.org/2000/svg">
<g clip-path="url(#clip0_142:58)">
<path d="M26.9525 2.375H3.38103C1.60648 2.375 0.166748 3.63477 0.166748 5.1875V25.8125C0.166748 27.3652 1.60648 28.625 3.38103 28.625H26.9525C28.727 28.625 30.1667 27.3652 30.1667 25.8125V5.1875C30.1667 3.63477 28.727 2.375 26.9525 2.375ZM23.6779 11.6797C23.6913 11.8438 23.6913 12.0137 23.6913 12.1777C23.6913 17.2578 19.2717 23.1113 11.1958 23.1113C8.70469 23.1113 6.39443 22.4785 4.45246 21.3887C4.80737 21.4238 5.14889 21.4355 5.5105 21.4355C7.5663 21.4355 9.45469 20.8262 10.9614 19.7949C9.03282 19.7598 7.41228 18.6523 6.85648 17.1289C7.53282 17.2168 8.14219 17.2168 8.83862 17.0586C6.82969 16.7012 5.323 15.1543 5.323 13.2852V13.2383C5.90559 13.5254 6.58862 13.7012 7.30514 13.7246C6.70275 13.374 6.20892 12.8984 5.86773 12.3401C5.52654 11.7819 5.3486 11.1584 5.34978 10.5254C5.34978 9.81055 5.56407 9.1543 5.94577 8.58594C8.10871 10.918 11.3565 12.4414 14.9993 12.6055C14.3766 9.99805 16.6065 7.88281 19.2851 7.88281C20.5507 7.88281 21.6891 8.3457 22.4926 9.0957C23.4837 8.93164 24.4346 8.60937 25.2784 8.16992C24.9502 9.06055 24.2605 9.81055 23.3498 10.2852C24.2337 10.2031 25.0909 9.98633 25.881 9.6875C25.2851 10.4551 24.5351 11.1348 23.6779 11.6797Z" fill="#699BF7"/>
</g>
<defs>
<clipPath id="clip0_142:58">
<rect width="30" height="30" fill="white" transform="translate(0.166748 0.5)"/>
</clipPath>
</defs>
</svg>
