<svg width="100" height="100" viewBox="0 0 100 100" fill="none" xmlns="http://www.w3.org/2000/svg">
<path d="M98.5019 46.6011L47.1722 0.547752C46.7782 0.196628 46.2755 0 45.7457 0H33.7216C32.7162 0 32.2543 1.29213 33.0151 1.96629L80.595 44.6629H1.08692C0.489113 44.6629 0 45.1685 0 45.7865V54.2135C0 54.8315 0.489113 55.3371 1.08692 55.3371H80.5814L33.0015 98.0337C32.2407 98.7219 32.7026 100 33.708 100H46.1397C46.3978 100 46.656 99.9017 46.8462 99.7191L98.5019 53.3989C98.9723 52.9761 99.3494 52.4539 99.6078 51.8675C99.8663 51.2812 100 50.6443 100 50C100 49.3557 99.8663 48.7188 99.6078 48.1325C99.3494 47.5461 98.9723 47.0239 98.5019 46.6011V46.6011Z" fill="#14213D"/>
</svg>
