<svg width="784" height="531" viewBox="0 0 784 531" fill="none" xmlns="http://www.w3.org/2000/svg">
<path d="M654.391 503.053H625.589V531H654.391V503.053Z" fill="#F0F0F0"/>
<path d="M784 234.758C784.012 276.899 773.708 318.267 754.168 354.519C734.629 390.771 706.575 420.569 672.952 440.786C671.046 441.932 669.114 443.05 667.174 444.13C659.979 448.164 652.577 451.735 645.005 454.825C641.989 456.073 638.942 457.234 635.865 458.309C635.568 458.421 635.263 458.532 634.967 458.626C604.823 469.15 572.927 472.163 541.593 467.445C510.259 462.727 480.273 450.397 453.811 431.349C450.261 428.796 446.785 426.132 443.383 423.356C441.46 421.782 439.562 420.179 437.69 418.53C432.395 413.91 427.313 409.013 422.442 403.839C401.734 381.965 385.265 355.709 374.027 326.651C362.79 297.593 357.016 266.335 357.053 234.758C357.053 105.101 452.625 0 570.526 0C688.428 0 784 105.101 784 234.758Z" fill="#F2F2F2"/>
<path d="M621.506 344.312L616.694 364.322L634.967 458.626C585.85 475.639 532.806 472.64 485.535 450.176L499.8 384.397L500.275 348.718L501.825 231.069L502.215 230.845C502.239 230.829 502.264 230.816 502.291 230.808L538.633 210.285L601.336 208.562L648.123 233.621L647.767 235.084L621.506 344.312Z" fill="#3F3D56"/>
<path d="M647.143 516.229C645.703 514.344 644.657 512.134 644.077 509.756C643.498 507.378 643.399 504.889 643.789 502.465C644.179 500.041 645.047 497.74 646.333 495.724C647.619 493.709 649.291 492.028 651.231 490.8L641.053 432.012L667.157 443.974L672.82 497.967C674.479 501.689 674.84 505.951 673.833 509.945C672.826 513.939 670.522 517.389 667.357 519.64C664.192 521.891 660.386 522.787 656.661 522.158C652.935 521.529 649.549 519.42 647.143 516.229V516.229Z" fill="#9E616A"/>
<path d="M638.691 235.451L645.388 233.054C645.388 233.054 666.635 248.049 664.613 284.302C664.613 284.302 665.41 303.062 664.649 315.547C663.777 329.867 675.466 472.172 675.466 472.172H637.607L621.381 343.303L638.691 235.451Z" fill="#3F3D56"/>
<path d="M616.731 144.236C616.731 153.69 614.182 162.932 609.405 170.793C604.629 178.653 597.841 184.78 589.898 188.398C581.956 192.016 573.216 192.962 564.785 191.118C556.353 189.274 548.608 184.721 542.529 178.036C536.45 171.351 532.31 162.834 530.633 153.562C528.956 144.289 529.817 134.678 533.107 125.944C536.397 117.21 541.968 109.744 549.116 104.492C556.264 99.2394 564.668 96.436 573.264 96.4359H573.265C578.958 96.4203 584.599 97.6381 589.865 100.02C595.131 102.402 599.919 105.901 603.955 110.317C607.991 114.734 611.197 119.981 613.389 125.76C615.581 131.539 616.717 137.736 616.731 143.998C616.731 144.077 616.731 144.157 616.731 144.236Z" fill="#9E616A"/>
<path d="M529.942 80.0318C535.034 67.9909 544.888 70.3715 553.506 74.453C564.419 71.791 574.798 63.8212 586.556 68.5345C598.139 87.06 637.026 81.6095 628.753 111.769C628.742 118.996 641.119 114.79 638.958 126.626C645.514 149.404 615.292 192.543 597.943 183.458C602.233 174.81 612.035 155.168 597.169 153.219C565.188 185.943 593.869 90.9057 553.686 118.544C540.381 131.934 522.166 93.4253 529.942 80.0318Z" fill="#2F2E41"/>
<path d="M596.458 463.465L527.074 448.353L544.865 349.569C569.415 359.78 592.543 364.818 614.249 364.681C595.28 395.275 586.662 428.125 596.458 463.465Z" fill="#E4E4E4"/>
<path d="M586.37 469.267L516.985 454.155C511.29 409.403 516.467 375.709 534.776 355.371C559.327 365.583 582.455 370.62 604.161 370.483C592.693 401.907 586.659 435.409 586.37 469.267V469.267Z" fill="#FFCD24"/>
<path d="M540.398 441.75C540.123 439.307 539.364 436.96 538.175 434.874C536.986 432.788 535.395 431.014 533.515 429.677C531.635 428.341 529.511 427.474 527.294 427.137C525.076 426.8 522.818 427.003 520.679 427.73L488.456 379.504L478.65 408.673L510.753 449.997C512.102 453.868 514.695 457.06 518.04 458.969C521.386 460.877 525.252 461.37 528.906 460.354C532.56 459.337 535.749 456.882 537.866 453.453C539.984 450.025 540.885 445.861 540.398 441.75Z" fill="#9E616A"/>
<path d="M511.506 233.613L505.669 229.278C505.669 229.278 470.937 232.834 463.79 268.295C463.79 268.295 458.565 289.6 456.165 301.832C454.931 308.123 438.473 368.905 438.473 368.905L494.286 435.979L509.534 410.826L494.286 368.905L511.506 233.613Z" fill="#3F3D56"/>
<path d="M28.802 117.863H0V145.81H28.802V117.863Z" fill="#FFCD24"/>
<path d="M90.6416 229.652H61.8396V257.599H90.6416V229.652Z" fill="#FFCD24"/>
<path d="M135.539 420.626H106.737V448.573H135.539V420.626Z" fill="#FFCD24"/>
<path d="M106.946 53.7045C106.092 53.7045 105.273 54.0775 104.67 54.7414C104.066 55.4052 103.727 56.3057 103.727 57.2446C103.727 58.1835 104.066 59.0839 104.67 59.7478C105.273 60.4117 106.092 60.7847 106.946 60.7847H341.981C342.833 60.7825 343.65 60.4086 344.252 59.7449C344.854 59.0813 345.193 58.1821 345.193 57.2446C345.193 56.3071 344.854 55.4079 344.252 54.7442C343.65 54.0805 342.833 53.7066 341.981 53.7045H106.946Z" fill="#E4E4E4"/>
<path d="M106.946 74.9451C106.523 74.9437 106.104 75.034 105.713 75.2108C105.321 75.3876 104.966 75.6475 104.666 75.9755C104.366 76.3036 104.128 76.6935 103.965 77.1228C103.802 77.5522 103.718 78.0126 103.717 78.4777C103.716 78.9429 103.799 79.4037 103.96 79.8338C104.121 80.2639 104.358 80.6548 104.656 80.9843C104.955 81.3137 105.309 81.5753 105.7 81.7539C106.091 81.9325 106.509 82.0247 106.932 82.0253H255.524C256.378 82.0253 257.196 81.6523 257.8 80.9884C258.404 80.3245 258.743 79.4241 258.743 78.4852C258.743 77.5463 258.404 76.6458 257.8 75.982C257.196 75.3181 256.378 74.9451 255.524 74.9451H106.946Z" fill="#E4E4E4"/>
<path d="M76.4496 308.026C75.5958 308.026 74.777 308.398 74.1733 309.062C73.5696 309.726 73.2305 310.627 73.2305 311.566C73.2305 312.505 73.5696 313.405 74.1733 314.069C74.777 314.733 75.5958 315.106 76.4496 315.106H311.485C312.337 315.104 313.154 314.73 313.756 314.066C314.358 313.402 314.696 312.503 314.696 311.566C314.696 310.628 314.358 309.729 313.756 309.065C313.154 308.402 312.337 308.028 311.485 308.026H76.4496Z" fill="#E4E4E4"/>
<path d="M76.4498 329.266C76.0268 329.265 75.6077 329.355 75.2165 329.532C74.8252 329.709 74.4695 329.969 74.1696 330.297C73.8698 330.625 73.6317 331.014 73.4689 331.444C73.3061 331.873 73.2218 332.334 73.221 332.799C73.2201 333.264 73.3025 333.725 73.4637 334.155C73.6248 334.585 73.8615 334.976 74.1601 335.305C74.4587 335.635 74.8134 335.896 75.204 336.075C75.5945 336.254 76.0133 336.346 76.4363 336.346H225.028C225.881 336.346 226.7 335.973 227.304 335.309C227.908 334.646 228.247 333.745 228.247 332.806C228.247 331.867 227.908 330.967 227.304 330.303C226.7 329.639 225.881 329.266 225.028 329.266H76.4498Z" fill="#E4E4E4"/>
<path d="M210.294 489.683C209.441 489.683 208.622 490.056 208.018 490.72C207.414 491.384 207.075 492.285 207.075 493.224C207.075 494.162 207.414 495.063 208.018 495.727C208.622 496.391 209.441 496.764 210.294 496.764H445.329C446.182 496.761 446.999 496.388 447.601 495.724C448.203 495.06 448.541 494.161 448.541 493.224C448.541 492.286 448.203 491.387 447.601 490.723C446.999 490.059 446.182 489.686 445.329 489.683H210.294Z" fill="#E4E4E4"/>
<path d="M210.294 510.924C209.871 510.923 209.452 511.013 209.061 511.19C208.67 511.367 208.314 511.626 208.014 511.955C207.714 512.283 207.476 512.672 207.313 513.102C207.151 513.531 207.066 513.992 207.065 514.457C207.065 514.922 207.147 515.383 207.308 515.813C207.469 516.243 207.706 516.634 208.005 516.963C208.303 517.293 208.658 517.554 209.048 517.733C209.439 517.912 209.858 518.004 210.281 518.004H358.872C359.726 518.004 360.545 517.631 361.148 516.967C361.752 516.304 362.091 515.403 362.091 514.464C362.091 513.525 361.752 512.625 361.148 511.961C360.545 511.297 359.726 510.924 358.872 510.924H210.294Z" fill="#E4E4E4"/>
<path d="M13.5438 131.963C20.4438 130.296 26.9712 127.13 32.7421 122.649C38.513 118.168 43.411 112.463 47.1479 105.87C49.2696 102.122 50.9795 98.1104 52.2418 93.9192C52.3373 93.5722 52.3064 93.198 52.1558 92.8755C52.0052 92.553 51.7466 92.3074 51.4346 92.1905C51.1225 92.0737 50.7814 92.0946 50.4831 92.2489C50.1848 92.4032 49.9527 92.6789 49.8356 93.0178C47.6694 100.023 44.2504 106.481 39.78 112.01C35.3096 117.54 29.8781 122.03 23.8055 125.216C20.3838 127.014 16.7794 128.357 13.0687 129.217C11.468 129.588 11.9398 132.335 13.5438 131.963V131.963Z" fill="#3F3D56"/>
<path d="M38.3047 99.2711C42.8857 96.434 47.4667 93.5969 52.0478 90.7597C52.26 90.629 52.8542 90.1341 53.0761 90.1932C52.8982 90.1458 53.0596 90.2907 53.0649 90.4677C53.072 90.7059 53.0993 90.9478 53.1075 91.1877C53.1572 92.6589 53.1815 94.1317 53.2186 95.6034L53.4316 104.067C53.4764 105.848 56.0128 106.06 55.9674 104.258L55.7174 94.3224C55.6601 92.0454 56.178 86.9951 52.8233 87.4316C51.6128 87.5892 50.4935 88.5218 49.461 89.1613L45.2783 91.7517L37.2117 96.7476C35.7911 97.6273 36.8781 100.155 38.3047 99.2711V99.2711Z" fill="#3F3D56"/>
<path d="M76.5013 243.527C69.6714 245.499 63.2686 248.951 57.6694 253.682C52.0701 258.414 47.3873 264.328 43.8961 271.078C41.9142 274.914 40.3534 278.996 39.2464 283.237C39.1699 283.59 39.2208 283.961 39.3885 284.273C39.5563 284.586 39.8276 284.814 40.1454 284.91C40.4632 285.007 40.8027 284.963 41.0921 284.79C41.3816 284.616 41.5985 284.326 41.697 283.98C43.6149 276.883 46.8053 270.279 51.0801 264.559C55.355 258.839 60.6278 254.117 66.5879 250.673C69.9442 248.732 73.4989 247.238 77.1769 246.222C78.7616 245.782 78.0902 243.086 76.5013 243.527L76.5013 243.527Z" fill="#3F3D56"/>
<path d="M52.937 277.287L39.6569 286.291C39.4292 286.445 39.2055 286.613 38.9686 286.751C38.7335 286.887 38.4917 286.883 38.6437 287.047C38.4387 286.825 38.491 286.004 38.4756 285.754L38.217 281.53L37.6996 273.083C37.5903 271.298 35.0481 271.284 35.1583 273.083L35.7656 282.999C35.9039 285.257 35.5213 289.931 38.6648 289.742C40.0644 289.658 41.3979 288.393 42.5448 287.616L46.3392 285.043L54.2197 279.7C55.6094 278.758 54.3345 276.339 52.937 277.287V277.287Z" fill="#3F3D56"/>
<path d="M120.202 433.469C126.715 435.345 132.821 438.635 138.16 443.146C143.499 447.657 147.963 453.298 151.288 459.736C153.163 463.361 154.638 467.218 155.682 471.227C155.78 471.573 155.997 471.864 156.286 472.037C156.576 472.211 156.915 472.254 157.233 472.157C157.551 472.061 157.822 471.833 157.99 471.521C158.158 471.209 158.209 470.837 158.132 470.485C156.127 463.039 152.789 456.109 148.314 450.102C143.839 444.096 138.317 439.133 132.073 435.507C128.525 433.448 124.766 431.859 120.877 430.775C119.291 430.334 118.614 433.029 120.202 433.469V433.469Z" fill="#3F3D56"/>
<path d="M143.159 466.947L151.039 472.29L154.833 474.863C155.983 475.642 157.312 476.905 158.713 476.989C161.856 477.178 161.474 472.505 161.613 470.247L162.22 460.33C162.33 458.534 159.788 458.542 159.679 460.33L159.161 468.777L158.914 472.818C158.895 473.127 158.969 474.037 158.735 474.294C158.902 474.111 158.728 474.198 158.541 474.074C158.27 473.893 157.992 473.721 157.721 473.538L144.441 464.534C143.045 463.588 141.767 466.004 143.159 466.947V466.947Z" fill="#3F3D56"/>
<path d="M57.604 79.6678C64.1539 79.6678 69.4637 73.8287 69.4637 66.6257C69.4637 59.4228 64.1539 53.5836 57.604 53.5836C51.0541 53.5836 45.7444 59.4228 45.7444 66.6257C45.7444 73.8287 51.0541 79.6678 57.604 79.6678Z" fill="#FFCD24"/>
<path d="M37.2732 335.228C43.8231 335.228 49.1329 329.389 49.1329 322.186C49.1329 314.983 43.8231 309.144 37.2732 309.144C30.7233 309.144 25.4136 314.983 25.4136 322.186C25.4136 329.389 30.7233 335.228 37.2732 335.228Z" fill="#FFCD24"/>
<path d="M165.188 516.578C171.738 516.578 177.047 510.739 177.047 503.536C177.047 496.333 171.738 490.494 165.188 490.494C158.638 490.494 153.328 496.333 153.328 503.536C153.328 510.739 158.638 516.578 165.188 516.578Z" fill="#FFCD24"/>
</svg>
