<svg width="100" height="100" viewBox="0 0 100 100" fill="none" xmlns="http://www.w3.org/2000/svg">
<path d="M87.5001 33.3334C81.4584 33.3334 78.0834 39.3334 79.4584 43.7917L64.6667 58.625C63.4167 58.25 61.5834 58.25 60.3334 58.625L49.7084 48C51.1251 43.5417 47.7501 37.5 41.6667 37.5C35.6251 37.5 32.2084 43.5 33.6251 48L14.6251 66.9584C10.1667 65.5834 4.16675 68.9584 4.16675 75C4.16675 79.5834 7.91675 83.3334 12.5001 83.3334C18.5417 83.3334 21.9167 77.3334 20.5417 72.875L39.5001 53.875C40.7501 54.25 42.5834 54.25 43.8334 53.875L54.4584 64.5C53.0417 68.9584 56.4167 75 62.5001 75C68.5417 75 71.9584 69 70.5417 64.5L85.3751 49.7084C89.8334 51.0834 95.8334 47.7084 95.8334 41.6667C95.8334 37.0834 92.0834 33.3334 87.5001 33.3334Z" fill="#FCA311"/>
<path d="M62.5001 37.5L66.4168 28.875L75.0001 25L66.4168 21.125L62.5001 12.5L58.6668 21.125L50.0001 25L58.6668 28.875L62.5001 37.5ZM14.5834 45.8333L16.6667 37.5L25.0001 35.4167L16.6667 33.3333L14.5834 25L12.5001 33.3333L4.16675 35.4167L12.5001 37.5L14.5834 45.8333Z" fill="#FCA311"/>
</svg>
