<svg width="150" height="150" viewBox="0 0 150 150" fill="none" xmlns="http://www.w3.org/2000/svg">
<path d="M105.717 6.59465L0 33.239L24.9501 143.405L150 104.817L105.717 6.59436V6.59465ZM136.397 98.3859L119.589 103.469L114.95 78.2012L111.174 79.1601L92.5471 32.8391L106.543 29.1272L136.397 98.3859ZM105.564 26.8567L91.6096 30.5071L86.9364 18.8859L100.617 15.3808L105.564 26.857V26.8567ZM84.3088 19.5591L88.9157 31.2116L37.8709 44.5637L36.8812 41.3478L14.1434 52.1261L10.783 38.3993L84.3088 19.5591ZM33.0498 129.666L21.5317 82.589L68.5219 69.5788L83.5854 114.31L33.0498 129.666ZM80.3455 49.7522L17.7211 66.7408L14.1885 52.311L39.5165 50.1401L38.5512 47.1614L89.8427 33.5566L108.253 80.1234L104.338 81.3644L119.243 103.574L101.94 108.807L80.3455 49.7522ZM43.5249 110.803C33.8256 105.211 34.3412 91.2781 44.451 85.8761C54.3252 80.5997 66.368 85.4903 66.9855 97.838C67.5639 109.401 53.2242 116.395 43.5246 110.803H43.5249ZM64.7716 97.4361C63.8915 87.0278 53.9968 82.8773 45.3952 87.4734C36.5886 92.1793 36.6454 104.487 45.1746 109.216C53.173 113.65 65.6698 108.058 64.7716 97.4361ZM47.2462 105.803L48.6495 92.1553L51.532 91.2371L59.7205 101.798L57.5001 103.032L55.1458 100.053L50.0259 101.551L49.7974 105.063L47.2462 105.803ZM50.129 99.4514L53.9897 98.2962L50.5632 93.6937L50.1287 99.4514H50.129Z" fill="#FCA311"/>
</svg>
