<svg width="100" height="100" viewBox="0 0 100 100" fill="none" xmlns="http://www.w3.org/2000/svg">
<g clip-path="url(#clip0_371:11)">
<path d="M80.4998 0C73.3548 0 67.2478 4.246 64.5229 10.357H28.1348C27.6272 10.357 27.1256 10.4675 26.6649 10.6808C26.2042 10.894 25.7954 11.205 25.4668 11.592L0.83185 40.607C-1.09815 42.882 0.51885 46.374 3.50185 46.373L96.5018 46.309C99.4828 46.306 101.097 42.816 99.1678 40.543L91.2978 31.271C93.3898 29.6375 95.0811 27.5477 96.2426 25.1611C97.4041 22.7746 98.0051 20.1542 97.9998 17.5C97.9998 7.805 90.1948 0 80.4998 0ZM76.9998 5H83.9998V14H92.9998V21H83.9998V30H76.9998V21H67.9998V14H76.9998V5ZM29.7538 17.357H63.0079C63.0079 17.405 62.9999 17.452 62.9999 17.5C62.9999 27.195 70.8048 35 80.4998 35C81.9918 35 83.4298 34.795 84.8098 34.447L88.9408 39.314L11.0679 39.367L29.7538 17.357V17.357ZM89.9099 51.313L80.7318 51.32L88.9428 60.99L11.0679 61.043L19.2878 51.361L10.0999 51.369L0.83185 62.283C-1.09815 64.558 0.51885 68.05 3.50185 68.049L96.5018 67.984C99.4828 67.982 101.097 64.492 99.1678 62.219L89.9099 51.312V51.313ZM89.9099 72.906L80.7318 72.914L88.9428 82.584L11.0679 82.637L19.2878 72.955L10.0999 72.963L0.83185 83.877C-1.09815 86.151 0.51885 89.644 3.50185 89.643L96.5018 89.578C99.4828 89.576 101.097 86.085 99.1678 83.812L89.9099 72.906Z" fill="#FCA311"/>
</g>
<defs>
<clipPath id="clip0_371:11">
<rect width="100" height="100" fill="white"/>
</clipPath>
</defs>
</svg>
