<svg width="1130" height="799" viewBox="0 0 1130 799" fill="none" xmlns="http://www.w3.org/2000/svg">
<path d="M297.463 227.837C297.104 225.137 296.379 222.493 295.305 219.971C295.168 219.494 294.928 219.049 294.6 218.665C294.273 218.282 293.865 217.967 293.403 217.741C292.785 217.588 292.137 217.581 291.516 217.721L281.828 219.132C281.018 219.167 280.241 219.455 279.618 219.95C278.356 221.213 279.599 223.247 279.56 224.99C279.517 226.949 277.688 228.54 275.704 229.066C273.68 229.455 271.591 229.431 269.577 228.994L256.031 226.99C260.02 225.777 263.572 223.522 266.279 220.48C268.061 218.47 269.01 214.717 266.434 213.765C265.668 213.565 264.87 213.504 264.081 213.585C257.943 213.63 253.114 208.752 247.368 206.698C243.691 205.468 239.699 205.376 235.964 206.436C232.228 207.496 228.941 209.654 226.571 212.599L233.787 212.931C234.466 212.895 235.139 213.066 235.71 213.419C237.291 214.655 235.325 217.031 235.548 218.968C235.837 221.484 239.347 222.022 241.993 222.276C244.639 222.531 247.995 224.577 246.722 226.8C233.424 231.16 219.892 218.276 205.926 219.862C202.391 220.264 199.054 221.585 195.603 222.417C174.521 227.494 152.727 213.947 131.191 216.816C126.404 217.593 121.698 218.774 117.131 220.346C114.2 221.262 111.143 222.252 109.013 224.377C106.883 226.501 106.073 230.135 108.09 232.356C102.529 232.792 96.9314 232.286 91.5565 230.86C93.01 231.629 94.2191 232.757 95.0571 234.124C95.895 235.492 96.3308 237.048 96.3187 238.631C87.6361 239.979 79.1834 242.433 71.188 245.926C72.6802 248.288 74.4232 250.498 76.3894 252.521L65.3974 259.244C69.1111 260.134 71.0311 264.955 68.8715 267.965C72.7221 266.335 75.1085 262.116 79.2261 261.261C81.9236 260.701 84.6685 261.751 87.2275 262.738C89.7866 263.725 92.5992 264.682 95.2484 263.941C97.8975 263.2 99.8515 259.931 98.1682 257.847C109.491 254.702 121.194 252.962 132.985 252.669C133.895 252.561 134.817 252.727 135.622 253.146C137.157 254.159 136.753 256.349 136.67 258.125C136.587 259.902 138.042 262.237 139.71 261.436C137.748 263.056 139.425 266.106 141.308 267.809C143.191 269.512 145.46 271.863 144.307 274.079C144.007 274.657 143.496 275.12 143.207 275.703C142.352 277.426 143.709 279.434 145.309 280.578C146.909 281.722 148.869 282.521 149.981 284.105C151.092 285.689 150.588 288.462 148.6 288.683L142.951 281.855C141.02 283.76 139.697 286.147 139.134 288.739C145.125 293.401 146.026 302.89 141.011 308.499C138.448 311.365 134.803 313.106 131.622 315.342C128.441 317.578 125.497 320.761 125.505 324.525C125.519 331.028 124.961 337.07 127.521 343.099C132.241 354.216 137.691 365.039 143.838 375.505C145.453 378.253 147.539 381.266 150.809 381.739C146.676 372.161 142.956 362.435 139.648 352.56C141.802 352.568 144.292 352.731 145.555 354.392C146.601 355.768 146.377 357.639 146.701 359.309C147.115 360.926 147.804 362.469 148.742 363.874L168.477 397.339C170.113 400.113 171.99 403.091 175.117 404.214C177.116 404.933 179.429 404.797 181.269 405.831C182.711 406.642 183.683 408.081 185.153 408.844C189.31 411.003 195.092 406.863 198.977 409.44C200.088 410.177 200.794 411.348 201.818 412.192C205.406 415.15 211.293 413.171 215.435 415.378C218.105 416.8 219.488 419.644 220.912 422.222C224.479 428.678 230.25 435.003 237.894 435.517C240.295 435.679 242.748 435.245 245.095 435.754C247.442 436.262 249.753 438.212 249.376 440.475C248.73 444.355 250.744 448.603 250.203 452.498C249.218 459.592 238.647 462.709 237.739 469.812C237.541 471.367 237.852 472.973 237.463 474.495C236.986 476.361 235.514 477.88 234.991 479.734C234 483.249 236.645 486.746 239.551 489.111C242.456 491.475 245.922 493.514 247.511 496.824C249.19 500.322 248.365 504.401 248.911 508.212C250.104 516.532 257.653 522.699 265.421 526.676C267.788 527.888 270.33 529.061 271.862 531.163C273.862 533.906 273.662 537.523 274.33 540.801C275.965 548.829 283.065 555.444 283.267 563.619C283.41 569.43 280.017 574.702 277.99 580.185C276.089 585.438 275.402 591.019 275.974 596.548C276.545 602.078 278.363 607.424 281.304 612.224C282.82 614.661 284.633 616.959 285.706 619.601C287.62 624.316 286.999 629.676 288.764 634.444C291.097 640.747 297.509 645.953 296.895 652.61C299.806 658.365 306.234 661.192 312.697 662.904L324.281 665.974C326.499 666.562 328.817 667.154 331.075 666.728C333.334 666.303 335.489 664.518 335.431 662.327C329.75 661.107 323.888 659.81 319.205 656.515C314.522 653.22 311.315 647.353 313.091 642.074C313.915 639.626 315.668 636.799 314.002 634.777C313.048 633.619 311.303 633.316 310.227 632.259C308.548 630.611 309.125 627.843 310.332 625.855C311.538 623.868 313.282 622.092 313.769 619.844C314.015 618.586 313.851 617.287 313.299 616.121C312.747 614.954 311.833 613.977 310.681 613.319C312.829 612.547 314.782 611.353 316.414 609.817C317.922 608.177 318.619 605.65 317.432 603.787C320.955 604.212 325.113 604.421 327.425 601.856C329.272 599.808 329.145 596.746 328.415 594.138C327.686 591.53 326.453 588.997 326.414 586.298C334.539 586.665 342.682 586.402 350.763 585.512C349.594 581.766 346.939 578.6 343.36 576.687C347.02 576.097 350.354 571.927 351.51 568.569C352.666 565.212 352.371 561.555 351.657 558.088C351.382 557.195 351.345 556.251 351.547 555.342C351.959 554.091 353.249 553.328 354.443 552.676L372.608 542.745C373.692 542.228 374.675 541.538 375.513 540.704C377.416 538.576 377.134 535.363 376.16 532.727C375.185 530.091 373.624 527.612 373.249 524.84C372.126 516.55 381.449 510.603 384.595 502.799C385.829 499.737 386.081 496.408 386.32 493.136C386.576 489.622 386.595 485.539 383.761 483.275C381.043 481.104 376.797 481.588 373.954 479.569C371.347 477.717 370.447 474.121 367.6 472.626C365.013 471.268 361.77 472.132 358.894 471.493C353.829 470.368 350.642 464.812 345.469 464.297C342.551 464.007 339.248 465.365 336.856 463.747C334.748 462.321 334.664 459.456 334.262 457.025C333.559 453.246 331.657 449.763 328.811 447.045C325.964 444.327 322.312 442.504 318.344 441.823C315.335 441.364 312.06 441.538 309.5 439.964C306.908 438.37 305.719 435.386 303.683 433.178C300.402 429.621 295.233 428.357 290.392 427.273L270.699 422.866C267.203 422.084 262.696 421.669 260.82 424.584C260.265 425.694 259.872 426.871 259.652 428.083C258.949 430.274 257.534 432.197 255.611 433.575C253.688 434.953 251.356 435.715 248.949 435.751C247.299 433.071 244.625 431.102 241.485 430.254C239.488 429.724 237.351 429.665 235.446 428.886C234.409 428.404 233.486 427.726 232.734 426.892C231.982 426.059 231.416 425.088 231.071 424.04C230.727 422.991 230.611 421.887 230.73 420.794C230.849 419.701 231.202 418.643 231.766 417.684C232.901 415.76 233.339 413.534 233.013 411.348C232.687 409.163 231.615 407.141 229.961 405.594C226.612 402.732 221.768 402.04 217.277 402.327C216.101 399.884 218.067 397.128 220.187 395.352C222.306 393.577 224.879 391.832 225.34 389.181C226.066 385.01 220.477 381.843 216.233 383.086C211.989 384.33 209.28 388.254 207.489 392.122C206.462 394.341 205.588 396.678 203.968 398.55C202.347 400.421 199.738 401.761 197.269 401.161C193.774 400.31 192.425 396.358 191.651 393.005C190.614 388.505 189.57 383.943 189.787 379.341C190.005 374.739 191.635 370.014 195.199 366.898C201.009 361.822 209.92 362.319 217.76 363.129C215.908 361.143 216.366 357.794 218.348 355.925C219.394 355.04 220.651 354.411 222.01 354.093C223.369 353.776 224.789 353.778 226.147 354.101C228.509 354.569 230.637 355.78 232.189 357.54C234.417 360.125 235.05 363.616 236.734 366.551C238.418 369.486 242.205 371.989 245.304 370.415C247.981 369.055 248.406 365.521 247.74 362.703C247.073 359.885 245.658 357.145 245.9 354.266C246.36 348.772 252.343 345.465 257.623 343.202C262.902 340.939 268.947 337.896 269.784 332.443C269.812 331.375 270.024 330.319 270.41 329.316C270.996 328.43 271.81 327.702 272.774 327.2C288.183 317.506 303.847 307.695 321.458 302.398C322.375 302.123 322.482 302.429 323.416 302.213C324.723 301.494 323.857 299.505 322.604 298.704C321.351 297.903 319.676 297.288 319.358 295.884C319.125 294.851 319.764 293.837 319.93 292.793C320.338 290.227 317.113 287.857 314.608 288.883C313.194 287.1 315.993 285.028 318.256 284.435C325.053 282.654 332.03 281.569 339.068 281.198C339.881 281.075 340.713 281.21 341.437 281.582C342.619 282.361 342.468 284.149 341.63 285.262C340.792 286.374 339.489 287.073 338.445 288.014C337.304 289.072 336.49 290.408 336.093 291.876C335.695 293.344 335.729 294.887 336.19 296.338C339.864 298.118 343.859 299.949 347.928 299.322C351.998 298.696 355.61 294.343 353.697 290.867C351.916 287.629 346.565 286.899 345.645 283.351C344.568 279.197 350.745 275.503 349.354 271.434C348.744 269.652 346.878 268.603 345.447 267.317C343.756 265.739 342.606 263.712 342.147 261.501C341.689 259.29 341.944 256.998 342.878 254.928C340.546 255.318 338.15 255.171 335.89 254.498C333.63 253.824 331.573 252.645 329.891 251.059C326.785 248.075 324.307 243.367 319.895 243.501C315.848 243.623 312.361 248.119 308.576 246.747C307.645 246.41 306.663 245.723 305.761 246.126C305.465 246.308 305.217 246.553 305.035 246.84C304.853 247.128 304.742 247.451 304.711 247.785C303.749 252.162 305.404 257.15 302.897 260.933C300.17 265.049 293.861 265.62 290.554 269.332C288.76 271.347 288.064 274.062 286.414 276.186C284.765 278.311 281.263 279.661 279.283 277.81C280.256 275.906 280.522 273.744 280.037 271.677C279.552 269.611 278.345 267.762 276.613 266.433C274.775 265.291 272.793 264.374 270.715 263.702C268.393 262.766 266.183 261.594 264.126 260.206C263.095 259.614 262.258 258.761 261.707 257.743C261.271 256.467 261.33 255.085 261.872 253.846C262.876 251.106 264.647 248.68 266.995 246.828C269.342 244.976 272.176 243.769 275.19 243.339C277.826 242.997 280.895 243.118 282.639 241.206C283.562 240.194 284.047 238.664 285.386 238.254C286.243 238.09 287.133 238.194 287.923 238.551L297.762 241.848C298.86 242.32 300.069 242.51 301.268 242.4C301.862 242.323 302.404 242.036 302.785 241.595C303.166 241.154 303.358 240.592 303.322 240.022C303.008 238.467 300.494 237.72 300.723 236.151C300.851 235.643 301.138 235.184 301.546 234.834C305.097 231.236 309.44 228.43 314.263 226.617C319.086 224.804 324.271 224.028 329.447 224.346C330.688 226.287 328.724 228.587 327.09 230.244C325.456 231.902 324.143 234.863 326.119 236.139C326.929 236.532 327.83 236.726 328.739 236.701C331.161 237.013 333.516 237.692 335.712 238.714C339.112 240.122 342.447 241.664 345.717 243.337C345.428 241.285 345.152 239.123 345.969 237.204C346.786 235.286 349.109 233.781 351.137 234.528C353.092 235.248 354.095 237.712 356.177 237.938C358.955 238.239 360.052 234.332 358.891 231.91C357.731 229.489 355.433 227.461 355.242 224.805C355.112 223.014 355.828 220.792 354.325 219.707C353.79 219.382 353.183 219.179 352.551 219.115L315.016 212.54C312.787 212.15 309.566 212.449 309.467 214.604C309.412 215.807 310.541 216.998 310.041 218.104C309.507 219.284 307.754 219.176 306.477 219.594C304.496 220.242 303.502 222.482 303.692 224.468C304.04 226.441 304.843 228.317 306.043 229.96C303.602 228.988 299.905 228.809 297.463 227.837Z" fill="#3F3D56"/>
<path d="M267.513 197.506C265.146 196.76 262.596 196.726 260.208 197.406C257.819 198.087 255.708 199.451 254.162 201.312C253.544 202.087 253.025 203.155 253.542 203.994C254.284 205.196 256.174 204.721 257.568 204.291C259.616 203.594 261.845 203.544 263.926 204.147C265.235 204.574 266.405 205.33 267.719 205.742C268.359 205.996 269.06 206.081 269.746 205.985C270.432 205.89 271.078 205.618 271.614 205.2C272.516 204.324 272.573 202.963 272.575 201.736C272.637 201.326 272.603 200.907 272.474 200.511C272.345 200.115 272.124 199.752 271.829 199.447C271.303 199.157 270.712 198.991 270.105 198.961C268.745 198.722 267.515 198.038 266.628 197.028" fill="#3F3D56"/>
<path d="M281.048 193.919C280.518 193.891 279.99 193.994 279.514 194.217C279.038 194.44 278.631 194.776 278.33 195.192C278.03 195.609 277.848 196.092 277.8 196.595C277.753 197.098 277.842 197.604 278.06 198.064C279.686 198.487 281.386 198.592 283.056 198.374C283.89 198.251 284.666 197.896 285.288 197.354C285.909 196.811 286.348 196.106 286.549 195.326C284.582 195.667 282.552 195.298 280.856 194.291" fill="#3F3D56"/>
<path d="M326.458 187.928C322.031 188.824 317.73 190.215 313.645 192.071C315.57 192.776 317.207 194.051 318.314 195.708C319.422 197.365 319.94 199.317 319.794 201.276C319.621 202.028 319.641 202.809 319.852 203.552C320.323 204.638 321.686 205.045 322.885 205.324C325.039 205.948 327.288 206.221 329.538 206.132C330.663 206.076 331.756 205.754 332.717 205.195C333.679 204.636 334.479 203.857 335.044 202.929C335.37 202.049 335.753 201.188 336.189 200.352C339.063 196.186 347.6 201.224 350.685 197.197C351.772 195.779 351.673 193.644 353.09 192.52C353.823 192.03 354.672 191.721 355.561 191.622C361.766 190.448 368.033 189.599 374.335 189.077C377.321 188.829 381.214 187.809 381.238 184.955C369.991 182.853 358.329 184.346 348.065 189.204C344.367 190.967 339.477 194.675 335.915 192.338C334.581 191.463 334.647 189.106 332.811 188.122C330.935 187.116 328.45 187.525 326.458 187.928Z" fill="#3F3D56"/>
<path d="M363.24 194.476L368.52 195.441C367.548 195.4 366.578 195.557 365.675 195.901C364.772 196.245 363.956 196.769 363.282 197.437C362.609 198.105 362.092 198.902 361.768 199.775C361.443 200.648 361.318 201.576 361.4 202.499C366.344 204.071 371.735 202.541 376.943 202.75C382.151 202.959 388.211 206.501 387.322 211.39C387.053 212.869 386.156 214.346 386.622 215.779C386.949 216.784 387.88 217.496 388.405 218.421C389.5 220.349 388.625 222.788 387.243 224.54C385.861 226.292 384.003 227.691 382.79 229.553C379.772 234.185 381.487 240.173 383.284 245.348C383.804 247.303 384.763 249.127 386.097 250.695C388.76 253.39 393.099 253.624 396.986 253.678C399.815 253.718 403.055 253.585 404.844 251.498C407.18 248.775 405.547 244.525 407.084 241.328C408.481 238.425 412.039 237.179 415.262 236.296C421.168 234.678 427.186 233.302 432.769 230.857C439.702 227.822 446.181 223.091 453.801 222.7C455.939 222.591 458.129 222.831 460.189 222.273C462.248 221.716 464.204 220.021 464.048 217.989C463.915 216.252 462.371 214.977 461.165 213.668C459.959 212.359 459.012 210.345 460.12 208.96L480.093 205.409C478.677 201.736 477.575 196.899 480.828 194.509C482.002 193.646 483.573 193.301 484.573 192.258C486.276 190.481 485.419 187.42 483.453 185.908C481.487 184.397 478.828 184.046 476.31 183.846C467.552 183.154 458.744 183.612 449.969 184.069C432.817 184.964 415.665 185.859 398.512 186.754C395.059 186.935 391.073 186.659 387.906 187.781C385.225 188.73 383.319 190.473 380.252 191.085C374.592 192.215 368.363 191.45 363.24 194.476Z" fill="#3F3D56"/>
<path d="M457.824 234.201C457.286 234.12 456.736 234.239 456.287 234.533C455.99 234.844 455.814 235.242 455.787 235.661C455.446 237.511 455.852 239.415 456.923 240.993C457.469 241.767 458.223 242.387 459.106 242.79C459.989 243.193 460.969 243.364 461.944 243.284C464.322 242.996 466.074 241.065 468.259 240.123C471.628 238.672 485.933 236.411 476.037 231.322C472.627 229.568 470.424 231.116 467.736 232.271C464.678 233.76 461.251 234.428 457.824 234.201Z" fill="#3F3D56"/>
<path d="M544.499 191.603C543.343 192.052 542.377 192.853 541.75 193.88C541.461 194.402 541.394 195.01 541.562 195.577C541.731 196.145 542.122 196.629 542.655 196.929C543.087 197.078 543.544 197.147 544.003 197.133L548.702 197.266C550.697 197.323 553.191 197.728 553.727 199.559C554.125 200.918 553.234 202.665 554.309 203.637C554.771 203.977 555.326 204.183 555.908 204.23C557.455 204.609 559.072 204.659 560.642 204.376C564.06 203.503 562.264 201.517 563.341 199.748C564.988 197.042 564.703 198.68 567.606 197.13C569.749 195.984 572.519 193.907 570.73 190.988C567.619 185.912 549.09 189.422 544.499 191.603Z" fill="#3F3D56"/>
<path d="M637.233 189.05L634.505 189.397C628.353 190.179 622.165 190.967 616.24 192.726C618.805 193.691 621.496 194.32 624.239 194.594C625.749 194.665 627.249 194.868 628.72 195.201C631.337 195.942 633.974 197.857 636.502 196.876C638.07 196.268 638.582 194.714 639.88 193.891C640.777 193.322 644.178 192.402 644.559 191.828C647.632 187.188 639.596 188.75 637.233 189.05Z" fill="#3F3D56"/>
<path d="M649.213 200.854C645.569 202.794 642.187 205.151 639.145 207.872C637.863 209.019 636.554 210.446 636.67 212.117C636.824 214.338 639.31 215.626 641.463 216.494L650.185 220.009C651.243 218.59 650.274 216.63 649.181 215.235C648.087 213.84 646.788 212.226 647.271 210.547C647.822 208.632 650.276 207.979 652.334 207.649C655.686 207.111 664.73 207.154 663.643 202.011C662.363 195.951 652.578 199.063 649.213 200.854Z" fill="#3F3D56"/>
<path d="M647.459 543.799C646.629 546.087 646.55 548.783 647.986 550.78C649.598 553.022 652.823 553.858 655.613 553.289C658.392 552.585 660.869 551.07 662.695 548.955C664.365 547.184 665.739 545.178 666.768 543.009C668.205 539.629 669.218 536.1 669.787 532.494L672.495 518.96C673.1 515.935 673.077 506.662 667.237 509.683C665.641 510.508 661.947 517.025 660.275 518.873C657.262 522.204 656.863 525.436 655.276 529.471C653.289 534.525 649.296 538.737 647.459 543.799Z" fill="#3F3D56"/>
<path d="M955.919 613.057C954.008 612.347 952.153 611.507 950.369 610.542C948.581 615.223 947.63 620.157 947.556 625.137L960.633 618.094C962.6 617.034 964.829 615.562 964.787 613.411C964.805 613.145 964.747 612.88 964.62 612.643C964.492 612.406 964.3 612.205 964.064 612.063C963.773 611.952 963.457 611.917 963.147 611.961C961.208 612.115 959.44 613.023 957.611 613.655C955.782 614.286 953.643 614.62 951.965 613.683" fill="#3F3D56"/>
<path d="M1024.9 617.239C1023.46 617.611 1022.06 618.09 1020.71 618.671C1017.71 620.125 1015.66 622.885 1012.96 624.8C1010.38 626.632 1007.27 627.637 1004.22 628.615C1003.32 629.371 1003.73 630.894 1004.71 631.558C1005.75 632.125 1006.96 632.383 1008.16 632.297C1011.33 632.363 1014.67 632.392 1017.45 630.934C1019.02 629.967 1020.48 628.86 1021.83 627.628C1025.08 625.047 1028.98 623.345 1032.84 621.699C1034.25 621.194 1035.55 620.454 1036.68 619.514C1039.11 617.238 1039.28 613.727 1035.78 612.952C1032.95 612.326 1027.59 616.41 1024.9 617.239Z" fill="#3F3D56"/>
<path d="M1055.38 598.287C1055.54 596.721 1055.32 595.141 1054.74 593.667C1054.16 592.193 1053.24 590.863 1052.04 589.779C1052.01 592.912 1051.91 596.251 1050.05 598.842C1048.74 600.688 1046.67 601.935 1045.22 603.694C1043.78 605.453 1043.13 608.24 1044.83 609.783C1045.91 610.568 1047.23 611.001 1048.6 611.018C1051.97 611.396 1055.88 611.607 1058.24 609.286C1059.53 608.019 1060.16 606.143 1061.74 605.212C1062.33 604.977 1062.85 604.62 1063.27 604.167C1063.92 603.183 1062.89 601.885 1061.73 601.53C1060.56 601.176 1059.28 601.342 1058.11 601.006C1056.94 600.669 1055.87 599.417 1056.47 598.404" fill="#3F3D56"/>
<path d="M1001.21 483.397C999.438 483.807 997.605 483.91 995.796 483.701C992.792 483.175 990.453 481.02 988.028 479.252C982.262 475.073 975.253 472.742 968.008 472.594C961.417 472.475 954.765 474.175 948.292 472.989C948.715 475.228 950.728 476.908 952.876 477.906C955.023 478.904 957.393 479.407 959.551 480.385C963.007 481.966 965.749 484.681 967.272 488.03C967.967 489.575 968.405 491.255 969.457 492.604C971.609 495.36 975.688 495.965 979.288 495.74C983.981 495.446 988.882 494.161 993.249 495.826C996.589 497.099 998.979 499.882 1001.77 502.046C1004.56 504.209 1008.49 505.815 1011.69 504.254C1008.36 503.229 1005.47 501.219 1003.42 498.516C1001.38 495.814 1000.3 492.562 1000.34 489.234C1003.48 489.509 1012.53 489.402 1012.04 484.322C1011.63 480.017 1003.91 482.932 1001.21 483.397Z" fill="#3F3D56"/>
<path d="M960.12 518.427C960.678 515.515 963.728 512.944 962.778 510.126C962.121 508.177 959.747 507.215 957.598 507.167C955.448 507.119 953.336 507.728 951.187 507.786C949.788 507.715 948.386 507.734 946.989 507.843C942.723 508.51 940.093 512.767 936.072 514.281C933.627 515.201 930.881 515.025 928.338 515.661C922.566 517.106 918.914 522.298 914.88 526.483C908.36 533.217 899.868 537.931 890.501 540.017C887.219 540.74 883.691 541.203 881.083 543.232C877.629 545.919 876.778 550.525 876.01 554.708C873.886 566.26 870.641 577.599 866.317 588.58L880.022 590.246C882.627 590.562 885.327 590.872 887.838 590.138C889.662 589.482 891.39 588.606 892.979 587.531C899.083 583.923 905.915 581.576 913.032 580.64C916.621 580.171 920.384 580.085 923.752 581.355C927.12 582.625 930.009 585.505 930.291 588.943C931.748 588.512 933.3 588.465 934.782 588.808C936.264 589.151 937.621 589.871 938.706 590.891C940.852 592.973 942.258 595.643 942.724 598.526C943.085 600.311 943.446 602.449 945.186 603.198C946.606 603.809 948.234 603.151 949.787 603.033C955.056 602.631 959.428 608.48 964.607 607.473C970.162 606.393 971.525 598.474 976.944 596.888C980.056 595.977 984.422 597.085 985.912 594.329C987.226 591.9 984.605 589.097 984.875 586.377C985.208 583.028 989.358 581.607 992.557 580.178C1003.59 575.252 1008.82 561.121 1003.48 550.7C1000.31 544.525 994.078 539.664 992.927 532.881C992.042 527.662 994.203 521.576 990.708 517.468C988.929 515.378 985.919 514.225 984.861 511.731C984.194 510.162 984.462 508.381 984.104 506.723C983.745 505.065 982.226 503.33 980.506 503.76C975.513 505.007 973.919 519.69 971.246 523.257C967.183 528.68 958.841 525.108 960.12 518.427Z" fill="#3F3D56"/>
<path d="M867.832 488.945C866.126 488.489 864.263 488.041 862.628 488.691C860.993 489.342 860.038 491.627 861.35 492.761C871.616 492.38 881.944 492.002 892.121 493.329C903.848 494.858 915.453 498.645 927.231 497.531C920.503 495.642 913.664 494.131 906.75 493.007L895.219 490.91C892.126 490.294 889.001 489.834 885.856 489.533C879.278 489.016 874.3 490.671 867.832 488.945Z" fill="#3F3D56"/>
<path d="M878.109 454.912C877.257 454.845 876.201 454.786 875.76 455.484C875.339 456.15 875.821 457.031 875.595 457.778C875.285 458.799 873.881 459.059 872.774 458.92C871.668 458.781 870.471 458.449 869.49 458.957C868.993 459.28 868.619 459.748 868.425 460.291C868.231 460.833 868.227 461.421 868.414 461.966C868.815 463.048 869.463 464.032 870.312 464.846C871.762 466.585 873.414 468.163 875.237 469.548C878.765 472.027 883.545 473.222 885.767 476.82C886.08 477.518 886.562 478.135 887.173 478.622C888.24 479.265 889.631 478.776 890.779 478.277L894.805 476.525C895.531 476.277 896.178 475.858 896.687 475.307C897.607 474.119 897.042 472.43 896.27 471.15C895.498 469.87 894.51 468.546 894.676 467.078C894.971 464.462 898.505 463.462 899.958 461.223C901.422 458.967 900.469 456.06 900.638 453.412C900.835 450.316 902.879 446.288 899.591 443.975C896.796 442.009 894.125 443.826 892.119 445.996C887.887 450.574 885.887 455.531 878.109 454.912Z" fill="#3F3D56"/>
<path d="M902.546 408.651C903.921 411.156 906.786 412.651 908.285 415.09C909.91 417.735 909.725 421.151 911.487 423.715C913.295 426.344 916.934 427.741 917.948 430.732C919.055 433.997 916.543 437.966 918.546 440.819C918.919 441.286 919.39 441.673 919.929 441.957C920.468 442.241 921.063 442.416 921.677 442.469C922.29 442.523 922.909 442.455 923.493 442.269C924.077 442.083 924.615 441.784 925.071 441.39C925.915 440.515 926.367 439.361 926.33 438.173C926.293 436.986 925.771 435.859 924.874 435.033C923.688 434.004 921.986 433.559 920.996 432.357C920.48 431.664 920.137 430.868 919.991 430.03C919.452 427.612 919.538 425.105 920.243 422.726C920.508 422.122 920.575 421.456 920.436 420.815C919.991 419.582 918.237 419.495 917.006 418.923C914.21 417.624 914.278 413.868 914.766 410.943C914.441 412.89 907.154 409.578 906.391 408.475C904.875 406.284 905.7 402.057 905.4 399.636C902.128 401.137 900.866 405.588 902.546 408.651Z" fill="#3F3D56"/>
<path d="M829.137 447.195C827.792 445.762 825.767 444.263 823.963 445.127C822.588 445.787 822.209 447.598 822.749 448.972C823.405 450.306 824.417 451.454 825.682 452.301C829.44 455.251 833.486 457.914 836.764 461.343C842.631 467.48 845.738 475.76 852.118 481.414C853.401 482.725 855.099 483.599 856.953 483.905C858.812 484.069 860.899 482.937 861.113 481.171C861.289 479.717 860.224 478.415 859.183 477.338C856.705 474.772 853.991 472.41 851.652 469.728C850.571 468.699 849.892 467.348 849.727 465.901C849.715 464.458 851.098 462.947 852.567 463.304C850.78 462.869 849.455 460.035 846.832 459.502C844.64 459.057 844.109 460.349 841.501 459.284C836.525 457.252 832.622 450.908 829.137 447.195Z" fill="#3F3D56"/>
<path d="M946.047 307.644C944.62 307.24 943.217 306.763 941.844 306.215C938.15 305.159 933.262 307.744 933.754 311.386C934.082 313.805 936.447 315.436 937.753 317.535C939.691 320.648 939.174 324.595 938.156 328.08C937.906 329.16 937.431 330.18 936.758 331.081C935.818 332.032 934.694 332.802 933.448 333.348C928.459 336.011 924.06 339.569 920.493 343.825C920.105 344.218 919.835 344.703 919.71 345.229C919.534 346.458 920.832 347.354 921.566 348.379C923.197 350.657 922.018 353.723 922.179 356.475C922.155 356.864 922.235 357.253 922.412 357.604C922.589 357.956 922.858 358.258 923.193 358.483C924.175 358.958 925.34 358.151 925.873 357.232C927.64 354.184 926.309 349.29 929.625 347.82C930.252 347.542 931.013 347.425 931.431 346.901C932.095 346.068 931.454 344.836 931.791 343.842C932.296 342.348 934.442 342.281 936.088 342.348C938.925 342.46 941.76 342.101 944.467 341.286C945.529 341.045 946.493 340.514 947.241 339.757C948.232 338.579 948.144 336.905 947.946 335.407C946.954 327.943 944.47 320.728 940.628 314.152C943.541 314.507 946.71 314.813 949.224 313.368C950.632 312.559 952.32 310.139 951.621 308.492C950.517 305.887 948.523 308.08 946.047 307.644Z" fill="#3F3D56"/>
<path d="M572.601 348.698C572.95 350.478 573.292 352.352 572.68 354.066C572.067 355.78 570.139 357.212 568.319 356.687C566.907 356.279 566.091 354.927 565.088 353.897C559.51 348.164 546.925 351.483 543.479 344.391C542.072 341.497 543.028 338.029 542.069 334.974C541.464 333.208 540.259 331.683 538.645 330.64C537.031 329.596 535.099 329.092 533.151 329.207C531.375 329.451 529.646 329.943 528.02 330.665C517.125 334.819 505.687 337.542 494.021 338.76C491.804 338.889 489.611 339.268 487.488 339.891C482.698 341.545 479.425 345.772 477.096 350.086C474.766 354.4 473.047 359.07 469.924 362.903C466.642 366.93 462.043 369.751 457.753 372.802C456.1 373.816 454.724 375.189 453.738 376.808C452.808 378.625 452.86 380.739 452.932 382.76L453.809 407.301C453.922 410.457 454.063 413.727 455.548 416.551C457.401 420.079 461.062 422.389 463.602 425.505C466.194 428.707 467.544 432.664 467.424 436.705C467.37 438.329 467.2 440.251 468.529 441.271C469.338 441.77 470.284 442.029 471.248 442.015L506.121 444.732C512.255 445.21 519.054 445.996 523.059 450.445C524.949 452.545 526.468 455.564 529.363 455.79C530.605 455.886 531.813 455.401 533.055 455.307C536.189 455.071 538.942 457.335 540.679 459.829C543.309 463.63 544.503 468.169 544.064 472.702C543.779 475.546 542.853 478.312 542.653 481.163C541.893 492.013 551.555 501.439 551.742 512.312C551.853 518.707 548.663 524.682 545.554 530.352C550.572 537.589 546.463 547.226 548.461 555.686C550.356 563.712 557.387 569.996 559.139 578.052C559.941 581.74 559.987 586.278 563.403 588.178C564.902 588.873 566.564 589.19 568.229 589.097C578.271 589.211 588.198 587.059 597.199 582.819C601.424 580.824 605.802 577.845 606.539 573.411C607.134 569.835 605.23 565.835 607.168 562.721C609.453 559.05 615.306 559.341 618.668 556.519C624.121 551.94 619.869 543.208 622.078 536.613C624.064 530.686 630.902 527.536 634.291 522.216C635.625 519.928 636.582 517.459 637.129 514.894C638.681 508.765 639.648 502.515 640.016 496.22C640.107 492.396 640.403 488.578 640.904 484.782C644.558 463.172 667.001 448.702 674.287 427.942C674.983 425.96 675.31 423.319 673.457 422.197C672.358 421.698 671.112 421.574 669.928 421.845L653.853 423.775C651.856 424.014 649.739 424.238 647.906 423.449C646.072 422.659 644.758 420.451 645.73 418.774C648.461 414.066 642.844 408.117 640.349 403.292C633.629 390.301 625.627 377.947 616.45 366.398C615.863 365.803 615.495 365.043 615.402 364.232L619.965 364.377C618.425 359.116 615.883 353.359 610.514 351.435C607.489 350.35 604.138 350.725 600.91 350.893C591.664 351.374 581.752 350.045 572.601 348.698Z" fill="#3F3D56"/>
<path d="M600.918 230.147C603.337 232.593 606.048 235.186 609.549 235.613C615.732 236.366 620.177 230.279 623.008 224.993C623.112 226.34 623.765 227.596 624.828 228.493C625.89 229.389 627.278 229.856 628.696 229.793C630.222 229.549 631.679 229.007 632.975 228.201C645.225 221.828 658.946 218.452 672.907 218.375C672.773 217.368 673.035 216.35 673.643 215.516C674.251 214.683 675.162 214.093 676.2 213.862C679.038 213.326 681.595 215.662 682.964 218.089C684.333 220.515 685.187 223.328 687.362 225.144C689.538 226.96 693.749 226.881 694.609 224.251C695.434 221.726 692.67 219.573 690.374 218.084C688.078 216.595 685.658 213.84 687.204 211.643C698.934 209.171 710.736 206.69 722.739 206.199C724.782 206.267 726.818 205.933 728.72 205.218C730.55 204.363 732.005 202.422 731.513 200.539C728.894 201.125 726.151 200.955 723.633 200.051C721.116 199.147 718.938 197.55 717.378 195.463C734.032 194.155 751.745 193.04 766.505 200.5C768.276 204.119 759.249 207.13 761.664 210.395C762.435 211.436 763.978 211.558 765.316 211.582C775.572 211.763 785.888 211.941 796.028 210.467C799.734 209.928 803.477 209.168 807.198 209.604C813.395 210.332 818.695 214.268 824.792 215.551C827.274 216.074 830.056 216.091 832.148 214.717C834.24 213.344 835.139 210.215 833.425 208.429C839.165 203.074 848.692 204.401 856.265 206.965C863.838 209.529 871.013 213.664 879.028 214.235C884.775 214.645 890.603 213.173 896.282 214.109C899.851 214.697 903.173 216.208 906.661 217.137C913.258 218.893 920.237 218.522 927.087 218.607C944.564 218.831 961.85 222.1 978.089 228.254C980.202 228.908 982.137 229.997 983.759 231.443C985.27 232.983 986.041 235.376 985.025 237.249L968.244 234.915C969.826 237.878 973.916 238.383 977.237 239.405C980.559 240.427 984.003 243.919 982.007 246.645C978.408 245.554 975.146 248.98 973.328 252.131C971.51 255.283 969.295 259.057 965.523 259.249C962.145 259.421 958.061 256.684 955.859 259.128C958.901 262.78 961.505 266.744 963.624 270.945C965.799 275.259 967.349 280.694 964.409 284.575C963.946 285.267 963.245 285.785 962.425 286.039C960.024 286.618 958.464 283.822 956.742 282.127C954.573 279.992 951.291 279.387 948.353 278.385C945.415 277.384 942.32 275.414 942.09 272.451C941.947 270.608 942.969 268.894 943.722 267.191C944.988 264.319 945.542 261.208 945.34 258.1C945.175 255.6 944.439 252.998 942.552 251.251C940.666 249.504 937.408 248.95 935.383 250.55C934.438 251.297 933.681 252.491 932.454 252.536C930.285 252.615 928.62 249.016 926.876 250.244C927.08 251.553 926.795 252.889 926.07 254.018C920.864 258.328 912.867 256.505 906.155 258.027C902.964 258.897 899.908 260.167 897.069 261.804C896.007 262.237 895.104 262.959 894.472 263.879C893.635 265.429 894.558 267.414 896.035 268.444C897.601 269.359 899.361 269.93 901.187 270.118C909.369 271.593 917.67 273.877 924.13 278.88C930.59 283.882 934.826 292.152 932.782 299.837L916.647 285.16C917.259 291.323 917.607 297.502 917.69 303.698C917.794 304.908 917.62 306.125 917.178 307.264C916.028 309.682 912.911 310.496 910.179 311.03C909.419 311.167 908.698 311.456 908.064 311.878C907.43 312.299 906.896 312.843 906.499 313.475C906.101 314.107 905.848 314.811 905.757 315.542C905.666 316.273 905.738 317.015 905.969 317.717C906.94 320.729 909.36 323.077 911.576 325.417C913.792 327.756 915.973 330.415 916.263 333.554C916.553 336.692 914.066 340.229 910.765 340.011C908.262 339.845 906.405 337.712 905.338 335.551C904.27 333.39 903.635 330.983 902.031 329.146C897.176 323.588 886.272 325.97 881.923 320.044C880.814 321.242 880.046 322.688 879.69 324.248C879.334 325.807 879.402 327.427 879.889 328.954C881.912 327.749 884.682 328.869 886.202 330.621C887.723 332.373 888.44 334.619 889.633 336.586C891.244 339.242 893.808 341.595 894.033 344.654C893.973 345.811 893.994 346.97 894.094 348.124C894.494 349.977 896.139 351.308 897.28 352.857C899.935 356.461 899.804 361.413 898.093 365.503C896.381 369.592 893.307 373.01 890.262 376.323C884.944 382.11 879.517 387.863 873.212 392.669C871.413 394.04 869.493 395.388 868.372 397.306C867.252 399.223 867.194 401.914 868.916 403.372C867.684 403.431 865.474 404.008 864.242 404.067C863.809 399.362 863.715 394.634 863.961 389.917C859.099 387.695 853.863 393.646 854.491 398.746C855.118 403.845 858.993 407.937 861.751 412.349C863.769 415.575 865.268 419.337 864.594 423.036C863.921 426.736 860.452 430.148 856.523 429.822C850.273 429.303 847.659 420.762 841.47 419.785C840.924 419.663 840.351 419.717 839.841 419.939C838.922 420.419 838.762 421.589 838.711 422.585C838.458 427.476 838.238 432.56 840.244 437.069C843.177 443.665 850.757 449.205 849.167 456.206C840.602 452.416 836.149 443.273 834.127 434.491C832.106 425.709 831.769 416.489 828.144 408.187C825.392 411.545 819.608 408.769 817.093 405.247C814.71 401.907 813.242 398.044 810.929 394.66C808.616 391.275 805.073 388.245 800.837 388.059C796.394 387.863 792.542 390.765 789.154 393.507C786.367 395.762 783.507 398.105 781.879 401.222C779.509 405.757 780.129 411.104 780.014 416.168C779.891 421.643 778.672 427.419 774.752 431.427C770.832 435.435 763.597 436.831 759.273 433.219C757.016 431.333 755.923 428.516 754.95 425.811C750.257 412.774 746.349 399.493 743.244 386.033C742.518 389.105 739.684 393.065 736.977 391.255C736.369 390.769 735.877 390.165 735.533 389.484C730.483 381.336 721.13 376.449 711.681 373.519C702.232 370.589 692.29 369.222 682.946 366.002C677.71 364.196 672.708 361.825 668.04 358.934C666.85 360.598 666.155 362.538 666.029 364.547C665.903 366.557 666.35 368.562 667.323 370.349C669.396 373.843 674.087 375.864 678.102 374.643C680.177 374.012 681.929 372.641 683.988 371.964C686.046 371.286 688.81 371.619 689.71 373.507C690.572 375.314 689.269 377.501 689.915 379.388C690.899 382.262 695.453 382.483 697.045 385.098C698.23 387.044 697.255 389.628 695.564 391.198C693.872 392.769 691.615 393.63 689.55 394.723C682.85 398.269 678.086 404.323 672.231 409.034C666.375 413.744 658.114 417.183 651.136 414.161C652.799 406.144 642.766 400.257 640.92 392.276C640.313 389.649 640.628 386.858 639.761 384.298C638.505 380.591 635.05 378.043 632.216 375.234C628.779 371.79 626.101 367.725 624.34 363.28C622.58 358.835 621.773 354.099 621.966 349.352C622.119 346.054 622.756 342.701 621.966 339.486C621.177 336.271 618.38 333.159 614.915 333.305C607 333.637 597.03 334.198 592.877 327.775C591.395 325.483 590.75 322.126 592.893 320.37C594.405 319.131 596.636 319.248 598.621 319.434L616.454 321.103C620.625 321.494 625.133 321.816 628.712 319.741C632.291 317.665 633.842 312.155 630.528 309.714C628.107 307.929 623.768 308.026 623.064 305.189C622.478 302.826 625.225 300.146 623.742 298.171C622.678 296.755 620.286 297.148 618.836 298.209C617.387 299.271 616.335 300.823 614.713 301.627C611.868 303.036 608.468 301.695 605.406 300.783C602.345 299.871 598.24 299.794 596.755 302.5C595.095 305.527 598.228 309.494 596.58 312.527C594.401 316.538 587.022 314.255 583.962 317.704C580.45 321.663 586.351 327.565 585.167 332.622C583.655 333.335 581.975 333.662 580.29 333.572C578.606 333.482 576.975 332.977 575.556 332.108C574.161 331.205 573.049 329.958 572.339 328.501C571.628 327.044 571.346 325.431 571.522 323.834C571.815 321.559 573.061 319.237 572.226 317.087C571.551 315.349 569.718 314.314 568.014 313.418L550.685 304.302C549.076 307.144 551.11 310.666 553.654 312.8C556.197 314.934 559.384 316.541 561.055 319.349C562.112 321.295 562.349 323.552 561.717 325.658C561.086 327.765 559.633 329.562 557.656 330.684C557.409 330.846 557.127 330.956 556.83 331.005C556.534 331.055 556.23 331.042 555.939 330.969C555.662 330.814 555.421 330.608 555.23 330.363C555.038 330.118 554.901 329.839 554.825 329.543C551.767 322.094 547.176 314.751 539.837 310.86C532.498 306.969 521.952 307.769 517.139 314.323C515.995 315.88 515.228 317.654 514.232 319.3C508.942 328.045 497.599 332.186 487.002 331.916C485.965 331.97 484.934 331.74 484.031 331.251C482.319 330.125 482.396 327.736 482.658 325.77L483.77 317.429C483.994 315.754 484.317 313.902 485.71 312.857C487.673 311.383 490.505 312.313 493.005 312.279C494.899 312.194 496.721 311.557 498.222 310.455C499.723 309.352 500.831 307.836 501.397 306.113C501.902 304.374 501.899 302.536 501.388 300.798C500.877 299.059 499.877 297.487 498.496 296.25C497.351 295.225 495.812 293.938 496.418 292.557C496.659 292.175 496.986 291.848 497.374 291.599C497.763 291.35 498.204 291.185 498.667 291.116C503.157 289.874 507.903 289.549 512.319 288.084C516.735 286.619 521.017 283.622 522.063 279.284C522.383 277.954 522.529 276.343 523.784 275.684C524.414 275.431 525.09 275.3 525.773 275.297C528.167 274.973 530.347 273.807 531.883 272.03C533.42 270.252 534.202 267.992 534.075 265.693C536.191 264.285 539.156 265.321 541.204 266.818C543.251 268.315 545.059 270.293 547.55 270.939C552.193 272.141 556.679 268.228 561.491 268.21C563.514 268.203 565.609 268.884 567.512 268.231C569.442 267.569 570.594 265.74 572.075 264.389C573.556 263.038 576.155 262.214 577.523 263.67L576.358 255.458C578.704 256.022 581.148 256.102 583.529 255.692C585.909 255.283 588.17 254.393 590.16 253.083L575.108 248.242C574.584 248.117 574.101 247.871 573.701 247.526C572.607 246.404 573.693 244.656 574.583 243.381C576.712 240.331 577.069 235.306 573.569 233.788C571.179 232.751 568.437 233.996 566.143 235.213L555.158 241.044C554.809 243.031 557.362 244.158 558.945 245.497C559.902 246.307 560.58 247.374 560.889 248.557C561.197 249.74 561.123 250.985 560.675 252.127C560.227 253.27 559.427 254.256 558.379 254.958C557.331 255.659 556.085 256.043 554.804 256.058C555.528 256.953 556.03 257.991 556.275 259.097C556.52 260.202 556.5 261.345 556.217 262.442L548.826 262.948C547.996 263.107 547.135 262.947 546.429 262.503C545.638 261.835 545.745 260.664 545.562 259.672C545.12 257.28 542.659 255.603 540.147 255.173C537.636 254.743 535.066 255.294 532.579 255.838C531.523 256.2 530.364 256.175 529.326 255.767C528.731 255.399 528.279 254.856 528.039 254.221C526.949 251.704 527.968 248.746 529.719 246.594C531.47 244.442 533.868 242.868 536.021 241.077C541.169 236.777 544.952 231.191 546.942 224.952C551.011 223.33 555.223 221.125 559.292 219.502C565.565 216.478 572.6 215.181 579.605 215.755L593.385 216.006C597.465 216.08 601.655 216.175 605.427 217.655C609.2 219.136 612.515 222.338 612.775 226.215C612.854 226.653 612.814 227.104 612.659 227.524C612.505 227.944 612.241 228.32 611.892 228.617C611.359 228.893 610.755 229.023 610.149 228.99C606.345 229.118 604.722 230.02 600.918 230.147Z" fill="#3F3D56"/>
<path d="M491.084 271.257C491.622 270.772 492.01 270.155 492.204 269.474C492.398 268.793 492.391 268.074 492.184 267.397C490.874 266.915 489.448 266.792 488.069 267.04C486.689 267.288 485.409 267.898 484.374 268.801C483.557 269.587 482.854 270.472 482.282 271.434C480.471 274.246 478.869 277.605 479.919 280.748C480.004 281.091 480.161 281.414 480.379 281.698C480.598 281.983 480.874 282.223 481.191 282.404C481.661 282.584 482.168 282.66 482.674 282.626C484.668 282.623 486.661 282.506 488.641 282.276C489.857 282.134 491.269 281.808 491.739 280.731C492.357 279.315 490.862 277.713 491.298 276.237C491.585 275.578 492.019 274.985 492.571 274.502C492.845 274.258 493.055 273.957 493.186 273.623C493.316 273.288 493.363 272.93 493.322 272.575C493.146 271.883 492.032 271.49 491.631 272.092" fill="#3F3D56"/>
<path d="M501.428 258.492C499.656 258.104 497.829 257.995 496.02 258.168C495.62 258.157 495.223 258.243 494.868 258.418C494.523 258.66 494.273 259.004 494.158 259.397C493.776 260.564 493.87 261.825 494.421 262.93C494.972 264.034 495.94 264.9 497.132 265.356C497.782 265.498 498.404 265.736 498.976 266.061C500.506 267.191 499.531 269.5 499.82 271.322C500.145 273.368 502.226 275.085 501.844 277.122C501.544 278.727 499.743 279.998 500.033 281.605C500.337 283.287 502.58 283.793 504.368 283.928C505.404 284.101 506.471 283.984 507.439 283.593C508.41 282.961 509.1 282.009 509.377 280.922C510.109 278.847 510.417 276.659 510.283 274.475C510.275 273.481 510.013 272.504 509.519 271.629C508.981 270.936 508.384 270.285 507.735 269.684C504.309 265.89 507.916 260.232 501.428 258.492Z" fill="#3F3D56"/>
<path opacity="0.8" d="M951.91 555.642C951.91 555.642 689.53 412.274 576.572 439.438C576.572 439.438 337.18 463.962 309.436 517.914C309.436 517.914 233.338 291.542 205.594 283.996" stroke="#FCA311" stroke-width="2" stroke-miterlimit="10"/>
<path opacity="0.8" d="M309.436 517.914C353.43 406.237 749.774 282.487 749.774 282.487C693.493 296.069 576.572 439.438 576.572 439.438C576.572 439.438 329.253 268.15 205.594 283.996C205.594 283.996 750.17 300.974 951.91 555.642" stroke="#FCA311" stroke-width="2" stroke-miterlimit="10"/>
<path d="M205.594 294.938C211.942 294.938 217.088 290.039 217.088 283.996C217.088 277.954 211.942 273.055 205.594 273.055C199.246 273.055 194.1 277.954 194.1 283.996C194.1 290.039 199.246 294.938 205.594 294.938Z" fill="#FCA311"/>
<path d="M309.436 528.855C315.784 528.855 320.93 523.956 320.93 517.914C320.93 511.871 315.784 506.972 309.436 506.972C303.088 506.972 297.942 511.871 297.942 517.914C297.942 523.956 303.088 528.855 309.436 528.855Z" fill="#FCA311"/>
<path d="M749.774 293.428C756.122 293.428 761.268 288.53 761.268 282.487C761.268 276.444 756.122 271.546 749.774 271.546C743.426 271.546 738.28 276.444 738.28 282.487C738.28 288.53 743.426 293.428 749.774 293.428Z" fill="#FCA311"/>
<path d="M951.91 566.584C958.258 566.584 963.404 561.685 963.404 555.642C963.404 549.6 958.258 544.701 951.91 544.701C945.562 544.701 940.416 549.6 940.416 555.642C940.416 561.685 945.562 566.584 951.91 566.584Z" fill="#FCA311"/>
<path d="M576.572 450.38C582.92 450.38 588.066 445.481 588.066 439.438C588.066 433.396 582.92 428.497 576.572 428.497C570.224 428.497 565.078 433.396 565.078 439.438C565.078 445.481 570.224 450.38 576.572 450.38Z" fill="#FCA311"/>
</svg>
